# xmcd
#
# Track frame offsets: 
#        150
#        58656
#        81331
#        131885
#        167444
#        194355
#        223844
#        245703
#        272244
#        318669
#
# Disc length: 4710 seconds
#
# Revision: 0
# Processed by: cddbd v1.5.2PL0 Copyright (c) Steve Scherf et al.
# Submitted via: ExactAudioCopy v1.0b1
#
DISCID=9e12640a
DTITLE=Boogie Chilli - Koncert
DYEAR=2011
DGENRE=blues
TTITLE0=The Same Thing
TTITLE1=Baby Please Don't Go
TTITLE2=Meet Me In The Morning
TTITLE3=Early In The Morning
TTITLE4=Hoochie Coochie Man
TTITLE5=Whiskey And Wimmen
TTITLE6=The Death Of J.B. Lenoir
TTITLE7=Buena
TTITLE8=VooDoo Child
TTITLE9=You Look Like Rain
EXTD=
EXTT0=
EXTT1=
EXTT2=
EXTT3=
EXTT4=
EXTT5=
EXTT6=
EXTT7=
EXTT8=
EXTT9=
PLAYORDER=
